<?xml version="1.0" encoding="utf-8"?>
<!-- Generator: Adobe Illustrator 21.0.0, SVG Export Plug-In . SVG Version: 6.00 Build 0)  -->
<svg version="1.1" id="图层_1" xmlns="http://www.w3.org/2000/svg" xmlns:xlink="http://www.w3.org/1999/xlink" x="0px" y="0px"
	 viewBox="0 0 16 16" style="enable-background:new 0 0 16 16;" xml:space="preserve">
<style type="text/css">
	.skinbaseLight{opacity:0.4;enable-background:new    ;}
	.skinbaseDark{opacity:0.7;enable-background:new    ;}
	.skinthemeLight{opacity:0.1;fill:#5789D9;enable-background:new    ;}
	.skinthemeDark{fill:#5789D9;enable-background:new    ;}
</style>
<path id="XMLID_259_" class="skinbaseLight" d="M12.5,5h1C13.8,5,14,5.2,14,5.5l0,0C14,5.8,13.8,6,13.5,6h-1C12.2,6,12,5.8,12,5.5
	l0,0C12,5.2,12.2,5,12.5,5z"/>
<path id="XMLID_256_" class="skinbaseDark" d="M14.4,15H1.6C0.7,15,0,14.3,0,13.4V4.6C0,3.7,0.7,3,1.6,3H3c0,0,0.6,0,1,0
	c1.2,0,1.5-2,3-2h2c1.5,0,1.8,2,3,2c0.2,0,1,0,1,0h1.4C15.3,3,16,3.7,16,4.6v8.8C16,14.3,15.3,15,14.4,15z M15,4.6
	C15,4.3,14.7,4,14.4,4H13l0,0c0,0-0.9,0-1.4,0c-1.4,0-1.8-2-2.9-2H7.3c-1.2,0-1.5,2-3,2C3.8,4,3,4,3,4l0,0H1.6C1.3,4,1,4.3,1,4.6
	v8.8C1,13.7,1.3,14,1.6,14h12.8c0.3,0,0.6-0.3,0.6-0.6C15,13.4,15,4.6,15,4.6z"/>
<path id="XMLID_261_" class="skinthemeLight" d="M8,5c2.2,0,4,1.8,4,4s-1.8,4-4,4s-4-1.8-4-4S5.8,5,8,5z"/>
<path id="XMLID_263_" class="skinthemeDark" d="M8,13c-2.2,0-4-1.8-4-4s1.8-4,4-4s4,1.8,4,4S10.2,13,8,13z M8,6C6.3,6,5,7.3,5,9
	s1.3,3,3,3s3-1.3,3-3S9.7,6,8,6z"/>
</svg>
