<?xml version="1.0" encoding="utf-8"?>
<!-- Generator: Adobe Illustrator 21.0.0, SVG Export Plug-In . SVG Version: 6.00 Build 0)  -->
<svg version="1.1" id="图层_1" xmlns="http://www.w3.org/2000/svg" xmlns:xlink="http://www.w3.org/1999/xlink" x="0px" y="0px"
	 viewBox="0 0 16 16" style="enable-background:new 0 0 16 16;" xml:space="preserve">
<style type="text/css">
	.skinbaseDark{opacity:0.7;enable-background:new    ;}
</style>
<path class="skinbaseDark" d="M10.6,9.6c0.7-0.7,2.1-0.9,2.8-0.1l1.1,1.1c0.7,0.7,0.6,2.1-0.1,2.8c-0.7,0.7-2.1,0.9-2.8,0.1
	l-1.1-1.1c-0.4-0.4-0.5-1.1-0.4-1.7L8,8.7l-2.1,2.1c0.1,0.6,0,1.2-0.4,1.7l-1.1,1.1c-0.7,0.7-2.1,0.6-2.8-0.1
	c-0.7-0.7-0.9-2.1-0.1-2.8l1.1-1.1c0.7-0.7,2.1-0.6,2.8,0.1c0,0,0.1,0.1,0.1,0.1L7.3,8L2.2,2.9C2,2.7,2,2.3,2.2,2.1s0.5-0.2,0.7,0
	L8,7.2l5.1-5.1c0.2-0.2,0.5-0.2,0.7,0s0.2,0.5,0,0.7L8.7,8l1.8,1.8C10.6,9.7,10.6,9.7,10.6,9.6z M4.7,10.4C4.3,10,3.5,9.9,3.2,10.3
	l-0.9,0.9c-0.4,0.4-0.3,1.1,0.1,1.5c0.4,0.4,1.1,0.5,1.5,0.1l0.9-0.9C5.2,11.5,5,10.7,4.7,10.4z M11.2,11.8l0.9,0.9
	c0.4,0.4,1.1,0.3,1.5-0.1s0.5-1.1,0.1-1.5l-0.9-0.9c-0.4-0.4-1.1-0.3-1.5,0.1C11,10.7,10.9,11.5,11.2,11.8z"/>
</svg>
