<?xml version="1.0" encoding="utf-8"?>
<!-- Generator: Adobe Illustrator 21.0.0, SVG Export Plug-In . SVG Version: 6.00 Build 0)  -->
<svg version="1.1" id="图层_1" xmlns="http://www.w3.org/2000/svg" xmlns:xlink="http://www.w3.org/1999/xlink" x="0px" y="0px"
	 viewBox="0 0 16 16" style="enable-background:new 0 0 16 16;" xml:space="preserve">
<style type="text/css">
	.st0{fill-rule:evenodd;clip-rule:evenodd;fill:#FFFFFF;}
</style>
<g>
	<g>
		<path class="st0" d="M8.20587,8.49976l4.66833-4.66827c0.19501-0.19501,0.19501-0.51117,0-0.70618
			c-0.19501-0.19513-0.51123-0.19513-0.70618,0L7.49969,7.79358L2.83148,3.12531c-0.19507-0.19513-0.51129-0.19513-0.7063,0
			c-0.19501,0.19501-0.19501,0.51117,0,0.70618l4.66833,4.66827l-4.63715,4.63721c-0.19495,0.19495-0.19495,0.51111,0,0.70612
			c0.19513,0.19513,0.51123,0.19513,0.7063,0l4.63702-4.63702l4.63708,4.63702c0.19513,0.19513,0.51123,0.19513,0.70624,0
			c0.19507-0.19501,0.19507-0.51117,0-0.70612L8.20587,8.49976z"/>
	</g>
</g>
</svg>
