<svg xmlns="http://www.w3.org/2000/svg" viewBox="0 0 16 16"><defs><style type="text/css">.skinbase06{opacity:1.0;fill:#FFFFFF;}.skinbase06,.skinbase30{isolation:isolate;fill:#FFFFFF;}.skinbase30{opacity:1.0;}</style></defs><title>关闭</title><path class="skinbase06" d="M12.89,3.59,8,8.5l4.88,4.89a.35.35,0,1,1-.5.5L7.49,9,2.61,13.89a.35.35,0,0,1-.5-.5L7,8.5,2.09,3.59a.35.35,0,0,1,.5-.5L7.49,8l4.9-4.91a.35.35,0,0,1,.5.5Z"/><path class="skinbase30" d="M13,3.73,8.27,8.5,13,13.24a.55.55,0,1,1-.77.77L7.5,9.27,2.76,14A.55.55,0,0,1,2,13.24L6.73,8.5,2,3.73A.55.55,0,0,1,2.73,3L7.5,7.73,12.27,3a.55.55,0,0,1,.77.77Z"/></svg>