<?xml version="1.0" encoding="utf-8"?>
<!-- Generator: Adobe Illustrator 21.0.0, SVG Export Plug-In . SVG Version: 6.00 Build 0)  -->
<svg version="1.1" xmlns="http://www.w3.org/2000/svg" xmlns:xlink="http://www.w3.org/1999/xlink" x="0px" y="0px"
	 viewBox="0 0 16 16" style="enable-background:new 0 0 16 16;" xml:space="preserve">
<style type="text/css">
	.skinbaseLight{opacity:0.4;enable-background:new    ;}
	.skinbaseDark{opacity:0.7;enable-background:new    ;}
	.skinDeleteDark{fill:#CC4747;}
</style>
<path class="skinbaseLight" d="M12.5,10h-9C3.2,10,3,9.8,3,9.5S3.2,9,3.5,9h9C12.8,9,13,9.2,13,9.5S12.8,10,12.5,10z M7.5,7h-4
	C3.2,7,3,6.8,3,6.5S3.2,6,3.5,6h4C7.8,6,8,6.2,8,6.5S7.8,7,7.5,7z"/>
<path class="skinbaseDark" d="M16,12v0.5L13.5,15H13l0,0H1.6C0.7,15,0,14.3,0,13.4V2.6C0,1.7,0.7,1,1.6,1h4.9H7h0.5
	C7.8,1,8,1.2,8,1.5S7.8,2,7.5,2h-1l0,0H1.6C1.3,2,1,2.3,1,2.6v10.8C1,13.7,1.3,14,1.6,14H13v-1c0-0.6,0.4-1,1-1h1V9.5V9V8.5
	C15,8.2,15.2,8,15.5,8S16,8.2,16,8.5V9v0.5V12L16,12z"/>
<path class="skinDeleteDark" d="M16,0c0,0,0,0.1-0.1,0.2c-0.6,0.4-1.7,1-3.2,2.3c2,2.1,3.3,4.2,3.3,4.4C16,7,16,7,15.9,7
	s-0.6-1.1-3.8-4c-0.3,0.3-0.5,0.5-0.8,0.8c-1.1,1.3-1.6,2.3-2.1,2.4c-0.4,0-0.5-0.9,0.4-1.9c0.7-0.7,1.4-1.3,2-1.8
	C10.1,1.2,9,0.8,9,0.3s0.8-0.5,1.7,0.3c0.6,0.5,1.1,1,1.5,1.5C14.3,0.5,16,0,16,0z"/>
</svg>
