<svg xmlns="http://www.w3.org/2000/svg" viewBox="0 0 20 20"><defs><style type="text/css">.cls-1{opacity:0.7;}.cls-2{fill-rule:evenodd;}.cls-3,.skinthemeLight{fill:#e55c5c;}.skinthemeLight{opacity:0.1;}</style></defs><title>50-22画板 4</title><g id="图层_4" data-name="图层 4"><g class="cls-1"><path class="cls-2" d="M16.52747,4a.5001.5001,0,0,0,.5-.5V2a2,2,0,0,0-2-2h-12a1.99994,1.99994,0,0,0-2,2V17a2,2,0,0,0,2,2h12a2.0001,2.0001,0,0,0,2-2V15.5a.5.5,0,0,0-1,0V17a1,1,0,0,1-1,1h-12a1,1,0,0,1-1-1V2a1,1,0,0,1,1-1h12a1,1,0,0,1,1,1V3.5A.50006.50006,0,0,0,16.52747,4Z"/></g><path class="skinthemeLight" d="M13.02734,6.9999V4.5624c0-.5431.5374-.8461,1.3187-.0648.3217.3217,4.0161,4.0147,4.3911,4.3897a.72579.72579,0,0,1-.0245,1.1374c-.4687.4688-3.5621,3.5483-4.4996,4.4858-.7812.7813-1.1856.372-1.1856-.1043-.0005-.8897-.0001-2.4063-.0001-2.4063H7.02724v-5Z"/><path class="cls-3" d="M18.73712,8.88727c-.375-.375-4.0694-4.068-4.39111-4.38971-.78125-.78125-1.31866-.47827-1.31866.06482v2.4375H8.02722V7H7.02747a1,1,0,0,0-1,1v3a1,1,0,0,0,1,1h4v-.00012h1.99988s-.00043,1.5166.00012,2.40631c0,.47632.40436.88562,1.18555.10431.9375-.9375,4.03094-4.017,4.49963-4.48584A.72575.72575,0,0,0,18.73712,8.88727ZM17.27655,9.99908c-.60773.609-1.63434,1.64771-2.7157,2.78418-.63843.70575-.56464.07513-.53339-.45605V11h-6.6a.4.4,0,0,1-.4-.4V8.4a.4.4,0,0,1,.4-.4h6.6V6.5c0-.91669-.02155-.739.43945-.25171,1.08441,1.0752,2.13434,2.0553,2.76709,2.63721C17.82184,9.4397,17.59161,9.68219,17.27655,9.99908Z"/></g></svg>