<?xml version="1.0" encoding="utf-8"?>
<!-- Generator: Adobe Illustrator 21.0.0, SVG Export Plug-In . SVG Version: 6.00 Build 0)  -->
<svg version="1.1" id="图层_1" xmlns="http://www.w3.org/2000/svg" xmlns:xlink="http://www.w3.org/1999/xlink" x="0px" y="0px"
	 viewBox="0 0 16 16" style="enable-background:new 0 0 16 16;" xml:space="preserve">
<style type="text/css">
	.skinthemeDark{fill:#5789D9;}
	.skinbaseLight{opacity:0.4;enable-background:new    ;}
	.skinbaseDark{opacity:0.7;enable-background:new    ;}
</style>
<path id="XMLID_1252_" class="skinbaseLight" d="M15.5,6C15.2,6,15,5.8,15,5.5v-1C15,4.2,15.2,4,15.5,4S16,4.2,16,4.5v1
	C16,5.8,15.8,6,15.5,6z M15.5,3C15.2,3,15,2.8,15,2.5V2h-1.5C13.2,2,13,1.8,13,1.5S13.2,1,13.5,1h2C15.8,1,16,1.2,16,1.5v1
	C16,2.8,15.8,3,15.5,3z M11.5,2h-2C9.2,2,9,1.8,9,1.5S9.2,1,9.5,1h2C11.8,1,12,1.2,12,1.5S11.8,2,11.5,2z M7.5,2h-2
	C5.2,2,5,1.8,5,1.5S5.2,1,5.5,1h2C7.8,1,8,1.2,8,1.5S7.8,2,7.5,2z M3.5,15h-2C1.2,15,1,14.8,1,14.5v-1C1,13.2,1.2,13,1.5,13
	S2,13.2,2,13.5V14h1.5C3.8,14,4,14.2,4,14.5S3.8,15,3.5,15z M1.5,12C1.2,12,1,11.8,1,11.5v-2C1,9.2,1.2,9,1.5,9S2,9.2,2,9.5v2
	C2,11.8,1.8,12,1.5,12z M1.5,8C1.2,8,1,7.8,1,7.5v-2C1,5.2,1.2,5,1.5,5S2,5.2,2,5.5v2C2,7.8,1.8,8,1.5,8z"/>
<path id="XMLID_1250_" class="skinbaseDark" d="M3.5,2H2v1.5C2,3.8,1.8,4,1.5,4S1,3.8,1,3.5V2H0.5C0.2,2,0,1.8,0,1.5S0.2,1,0.5,1H1
	V0.5C1,0.2,1.2,0,1.5,0S2,0.2,2,0.5V1h1.5C3.8,1,4,1.2,4,1.5S3.8,2,3.5,2z"/>
<path id="XMLID_1263_" class="skinthemeDark" d="M14,12c1.1,0,2,0.9,2,2s-0.9,2-2,2s-2-0.9-2-2c0-0.1,0-0.2,0-0.3l-1.5-1.5L9,13.7
	c0,0.1,0,0.2,0,0.3c0,1.1-0.9,2-2,2s-2-0.9-2-2s0.9-2,2-2c0.6,0,1.2,0.3,1.5,0.7l1.2-1.2L6.1,7.8c-0.2-0.2-0.2-0.5,0-0.7
	s0.5-0.2,0.7,0l3.6,3.6L14,7.1c0.2-0.2,0.5-0.2,0.7,0s0.2,0.5,0,0.7l-3.6,3.6l1.3,1.3C12.8,12.3,13.4,12,14,12z M14,15
	c0.6,0,1-0.4,1-1s-0.4-1-1-1s-1,0.4-1,1S13.4,15,14,15z M7,13c-0.6,0-1,0.4-1,1s0.4,1,1,1s1-0.4,1-1S7.6,13,7,13z"/>
</svg>
