<svg xmlns="http://www.w3.org/2000/svg" viewBox="0 0 16 16"><defs><style type="text/css">.skinbaseDark{opacity:0.7;isolation:isolate;}.skinthemeDark{fill:#5789D9;}</style></defs><title>InsertPictureFromFile</title><path class="skinbaseDark" d="M14.4,14.9998H1.5999A1.5999,1.5999,0,0,1,0,13.3999V2.5998A1.6,1.6,0,0,1,1.5999.9999H14.4a1.6,1.6,0,0,1,1.5998,1.5999V13.3999A1.59994,1.59994,0,0,1,14.4,14.9998Zm.5999-12.4A.59986.59986,0,0,0,14.4,1.9999H1.5999A.59986.59986,0,0,0,1,2.5998V13.3999a.59986.59986,0,0,0,.5999.5999H14.4a.59986.59986,0,0,0,.5999-.5999Z"/><path class="skinthemeDark" d="M14.8275,11.827a.5027.5027,0,0,1-.7109,0L12.1411,9.8516l-.0047-.0113c-.006-.0054-.0139-.0072-.0196-.0131,0,0-.3513-.3514-.6012-.6012a.72378.72378,0,0,0-1.0666.0039l-.5971.5973c-.0059.0059-.0138.0077-.0198.0131l-.0046.0113-.9242.924c-.0208.0344-.0148.0778-.0445.1074l-.6012.6012a1.64993,1.64993,0,0,1-1.2264.5155,1.7933,1.7933,0,0,1-1.2577-.5155c-.2812-.2812-.6014-.6012-.6014-.6012-.0072-.0073-.0041-.0187-.0107-.0263a.48727.48727,0,0,1-.0448-.0295s-.351-.3513-.6011-.6013a.72394.72394,0,0,0-1.0666.0042c-.2498.25-.5972.5972-.5972.5972-.0057.0058-.0136.0076-.0197.013l-.0045.0112-.9758.9757a.50265.50265,0,0,1-.7109-.7108l.9758-.9756c.0058-.0058.0137-.0077.0196-.0131l.0047-.0115s.3201-.3197.6014-.6011A1.79322,1.79322,0,0,1,4,8.9995a1.64963,1.64963,0,0,1,1.2264.5156l.6011.6011c.0072.0073.0042.0188.0109.0264a.46465.46465,0,0,1,.0446.0295s.3473.3472.5972.5973a.7239.7239,0,0,0,1.0665.0041l.5497-.5498c.0208-.0343.0149-.0777.0446-.1072l.9757-.9758c.0057-.0059.0136-.0076.0197-.0132l.0045-.0111s.32-.3201.6013-.6014A1.79367,1.79367,0,0,1,11,7.9997a1.64886,1.64886,0,0,1,1.2263.5153c.3126.3124.6011.6014.6011.6014l.0048.0113c.006.0054.0139.0073.0196.013l1.9757,1.9757A.50216.50216,0,0,1,14.8275,11.827ZM6.4999,6.9998A1.5,1.5,0,1,1,8,5.4997,1.5,1.5,0,0,1,6.4999,6.9998Zm0-2A.50005.50005,0,1,0,7,5.4997.4999.4999,0,0,0,6.4999,4.9998Z"/></svg>