<svg xmlns="http://www.w3.org/2000/svg" viewBox="0 0 16 16"><defs><style type="text/css">.skinbase30{opacity:1;isolation:isolate;}</style></defs><title>还原</title><path class="skinbase30" fill="#FFFFFF" d="M12.2,11H12a.49.49,0,0,1,0-1h.2a.8.8,0,0,0,.8-.8V3.8a.8.8,0,0,0-.8-.8H6.8a.8.8,0,0,0-.8.8V4H6A.49.49,0,0,1,5,4H5V3.8A1.8,1.8,0,0,1,6.8,2h5.4A1.8,1.8,0,0,1,14,3.8V9.2A1.8,1.8,0,0,1,12.2,11ZM6,5H9.2A1.8,1.8,0,0,1,11,6.8v5.4A1.8,1.8,0,0,1,9.2,14H3.8A1.8,1.8,0,0,1,2,12.2V6.8A1.8,1.8,0,0,1,3.8,5H6ZM3.8,6a.8.8,0,0,0-.8.8v5.4a.8.8,0,0,0,.8.8H9.2a.8.8,0,0,0,.8-.8V6.8A.8.8,0,0,0,9.2,6Z"/></svg>