<svg id="图层_1" data-name="图层 1" xmlns="http://www.w3.org/2000/svg" viewBox="0 0 20 20"><defs><style type="text/css">.skinbaseDark{opacity:0.7;isolation:isolate;}</style></defs><title>20px图标补充</title><path class="skinbaseDark" d="M6,5A1,1,0,1,1,5,6,1.00115,1.00115,0,0,1,6,5M6,4A2,2,0,1,0,8,6,2,2,0,0,0,6,4Z"/><path class="skinbaseDark" d="M18.5,1H1.5A1.5,1.5,0,0,0,0,2.5v14A1.5,1.5,0,0,0,1.5,18h17A1.5,1.5,0,0,0,20,16.5V2.5A1.5,1.5,0,0,0,18.5,1ZM1.5,2h17a.50057.50057,0,0,1,.5.5V12.93921l-2.6084-3.6521A2.50069,2.50069,0,0,0,12.458,9.11377L8.82422,13.35449a.49764.49764,0,0,1-.36133.1748.53357.53357,0,0,1-.373-.14648L6.26758,11.56055a2.50174,2.50174,0,0,0-3.53516,0L1,13.293V2.5A.50057.50057,0,0,1,1.5,2Zm17,15H1.5a.50057.50057,0,0,1-.5-.5V14.707l2.43945-2.43945a1.503,1.503,0,0,1,2.12109,0l1.82227,1.82227A1.46868,1.46868,0,0,0,8.5,14.52832a1.50553,1.50553,0,0,0,1.083-.52295l3.63477-4.24072a1.47146,1.47146,0,0,1,1.20605-.52295,1.49061,1.49061,0,0,1,1.15332.62646L19,14.66064V16.5A.50057.50057,0,0,1,18.5,17Z"/></svg>