<svg xmlns="http://www.w3.org/2000/svg" viewBox="0 0 16 16"><defs><style type="text/css">.skinbaseLight{opacity:0.4;}.skinbaseDark,.skinbaseLight{isolation:isolate;}.skinbaseDark{opacity:0.7;}</style></defs><title>Print</title><path class="skinbaseLight" d="M10.4999,6h2a.5.5,0,0,1,0,1h-2a.5.5,0,0,1,0-1Z"/><path class="skinbaseDark" d="M14,11H12.9999v2.4a1.59994,1.59994,0,0,1-1.6,1.6h-7.8a1.59994,1.59994,0,0,1-1.6-1.6V11H1a1,1,0,0,1-1-1V4.6a1.59992,1.59992,0,0,1,1.6-1.5999h.3999V1.59985a1.59992,1.59992,0,0,1,1.6-1.5999h7.8a1.59992,1.59992,0,0,1,1.6,1.5999v1.4002H13.4A1.6,1.6,0,0,1,15,4.6V10A1,1,0,0,1,14,11ZM2.9999,13.4a.59988.59988,0,0,0,.6.5999h7.8a.59988.59988,0,0,0,.6-.5999v-4a.4.4,0,0,0-.4-.4h-8.2a.4.4,0,0,0-.4.4Zm9-11.8001a.6.6,0,0,0-.6-.5999h-7.8a.6.6,0,0,0-.6.5999v1.4002h9ZM14,4.6a.60011.60011,0,0,0-.6-.6001H1.6A.6.6,0,0,0,1,4.6v4.9999A.4.4,0,0,0,1.3999,10h.6V9a1,1,0,0,1,1-1h9a1,1,0,0,1,1,1v1h.6A.40006.40006,0,0,0,14,9.59985Z"/></svg>