<?xml version="1.0" encoding="utf-8"?>
<!-- Generator: Adobe Illustrator 19.0.0, SVG Export Plug-In . SVG Version: 6.00 Build 0)  -->
<svg version="1.1" id="图层_6" xmlns="http://www.w3.org/2000/svg" xmlns:xlink="http://www.w3.org/1999/xlink" x="0px" y="0px"
	 viewBox="0 0 16 16" style="enable-background:new 0 0 16 16;" xml:space="preserve">
<style type="text/css">
	._x0036_0_x0025_{opacity:0.6;fill-rule:evenodd;clip-rule:evenodd;}
	.st0{opacity:0.6;}
	.st1{fill-rule:evenodd;clip-rule:evenodd;}
</style>
<g id="XMLID_58_" class="st0">
	<g id="XMLID_348_">
		<path id="XMLID_349_" class="st1" d="M10.5,3h-5C5.2,3,5,3.2,5,3.5S5.2,4,5.5,4h5C10.8,4,11,3.8,11,3.5S10.8,3,10.5,3z M14.8,4.1
			C14.8,4.1,14.8,4.1,14.8,4.1l-3-3C11.7,1,11.5,1,11.4,1H11v0H2.6C1.7,1,1,1.7,1,2.6v10.8C1,14.3,1.7,15,2.6,15h10.8
			c0.9,0,1.6-0.7,1.6-1.6V5.5c0,0,0,0,0,0v-1C15,4.4,14.9,4.2,14.8,4.1z M12,14H4V8h8V14z M14,5L14,5l0,8.6c0,0.2-0.2,0.4-0.4,0.4
			H13V7.5c0-0.1,0-0.1,0-0.2C12.9,7.1,12.7,7,12.5,7h-9C3.2,7,3,7.2,3,7.5V14H2.4C2.2,14,2,13.8,2,13.6V2.4C2,2.2,2.2,2,2.4,2h8.1
			c0,0,0,0,0,0h0.8L14,4.7V5z"/>
	</g>
</g>
</svg>
